<?xml version="1.0" encoding="UTF-8" standalone="no"?>
<!-- Created with Inkscape (http://www.inkscape.org/) -->

<svg
   xmlns:dc="http://purl.org/dc/elements/1.1/"
   xmlns:cc="http://creativecommons.org/ns#"
   xmlns:rdf="http://www.w3.org/1999/02/22-rdf-syntax-ns#"
   xmlns:svg="http://www.w3.org/2000/svg"
   xmlns="http://www.w3.org/2000/svg"
   xmlns:xlink="http://www.w3.org/1999/xlink"
   xmlns:sodipodi="http://sodipodi.sourceforge.net/DTD/sodipodi-0.dtd"
   xmlns:inkscape="http://www.inkscape.org/namespaces/inkscape"
   width="468px"
   height="60px"
   id="svg2985"
   version="1.1"
   inkscape:version="0.48.2 r9819"
   sodipodi:docname="russian-roulette-logo.svg"
   inkscape:export-filename="C:\Users\kkwc\Documents\Will\Projects\Russian_Roulette\russian-roulette-logo.png"
   inkscape:export-xdpi="90"
   inkscape:export-ydpi="90">
  <defs
     id="defs2987">
    <linearGradient
       id="linearGradient3831">
      <stop
         style="stop-color:#000030;stop-opacity:0.42857143;"
         offset="0"
         id="stop3833" />
      <stop
         style="stop-color:#000000;stop-opacity:1"
         offset="1"
         id="stop3835" />
    </linearGradient>
    <linearGradient
       inkscape:collect="always"
       xlink:href="#linearGradient3831"
       id="linearGradient3837"
       x1="224.99998"
       y1="-29.583336"
       x2="224.16667"
       y2="73.75"
       gradientUnits="userSpaceOnUse" />
  </defs>
  <sodipodi:namedview
     id="base"
     pagecolor="#ffffff"
     bordercolor="#666666"
     borderopacity="1.0"
     inkscape:pageopacity="0.0"
     inkscape:pageshadow="2"
     inkscape:zoom="1.2"
     inkscape:cx="104"
     inkscape:cy="30"
     inkscape:document-units="px"
     inkscape:current-layer="layer1"
     showgrid="false"
     inkscape:window-width="1600"
     inkscape:window-height="838"
     inkscape:window-x="-8"
     inkscape:window-y="-8"
     inkscape:window-maximized="1" />
  <metadata
     id="metadata2990">
    <rdf:RDF>
      <cc:Work
         rdf:about="">
        <dc:format>image/svg+xml</dc:format>
        <dc:type
           rdf:resource="http://purl.org/dc/dcmitype/StillImage" />
        <dc:title></dc:title>
      </cc:Work>
    </rdf:RDF>
  </metadata>
  <g
     id="layer1"
     inkscape:label="Layer 1"
     inkscape:groupmode="layer">
    <rect
       style="fill:url(#linearGradient3837);stroke:none;stroke-width:2;stroke-linecap:square;stroke-linejoin:miter;stroke-miterlimit:4;stroke-opacity:1;stroke-dasharray:2, 2;stroke-dashoffset:0;fill-opacity:1;opacity:0.84"
       id="rect3829"
       width="470.83334"
       height="60.833332"
       x="0"
       y="0" />
    <g
       transform="translate(15,-2.5)"
       style="font-size:48px;font-style:normal;font-variant:normal;font-weight:bold;font-stretch:normal;line-height:125%;letter-spacing:-3px;word-spacing:12px;fill:#000000;fill-opacity:1;stroke:none;font-family:DejaVu Sans;-inkscape-font-specification:DejaVu Sans Bold"
       id="flowRoot2993">
      <path
         d="m 11.90625,13.802782 14.976562,0 c 4.453102,3.5e-5 7.871067,0.988315 10.253907,2.964844 2.38278,1.976592 3.574185,4.792996 3.574218,8.449219 -3.3e-5,3.671894 -1.191438,6.49611 -3.574218,8.472656 -2.38284,1.976575 -5.800805,2.964856 -10.253907,2.964844 l -5.953125,0 0,12.140625 -9.023437,0 z m 9.023437,6.539063 0,9.773437 4.992188,0 c 1.74998,1.9e-5 3.101541,-0.425762 4.054687,-1.277344 0.953102,-0.851541 1.429664,-2.058571 1.429688,-3.621093 -2.4e-5,-1.562475 -0.476586,-2.765599 -1.429688,-3.609375 -0.953146,-0.843722 -2.304707,-1.265597 -4.054687,-1.265625 z"
         style="stroke:#000000;stroke-opacity:1;fill:none;fill-opacity:1;stroke-width:2;stroke-miterlimit:4;stroke-dasharray:2,2;stroke-dashoffset:0"
         id="path3029" />
      <path
         d="m 40.242187,22.54497 8.390625,0 7.054688,17.8125 6,-17.8125 8.390625,0 -11.039063,28.734375 c -1.109393,2.921869 -2.40236,4.964836 -3.878906,6.128906 -1.476576,1.164052 -3.425793,1.746083 -5.847656,1.746094 l -4.851563,0 0,-5.507813 2.625,0 c 1.421867,-5e-6 2.457022,-0.226567 3.105469,-0.679687 0.648427,-0.453129 1.152332,-1.265628 1.511719,-2.4375 L 51.9375,49.802782 z"
         style="stroke:#000000;stroke-opacity:1;fill:none;fill-opacity:1;stroke-width:2;stroke-miterlimit:4;stroke-dasharray:2,2;stroke-dashoffset:0"
         id="path3031" />
      <path
         d="m 55.101562,10.404345 6.632813,0 -8.648438,8.8125 -4.59375,0 z"
         style="stroke:#000000;stroke-opacity:1;fill:none;fill-opacity:1;stroke-width:2;stroke-miterlimit:4;stroke-dasharray:2,2;stroke-dashoffset:0"
         id="path3033" />
      <path
         d="m 93.210937,23.365282 0,6.84375 c -1.140649,-0.781231 -2.285179,-1.359355 -3.433593,-1.734375 -1.148458,-0.374979 -2.339863,-0.562479 -3.574219,-0.5625 -2.343766,2.1e-5 -4.167983,0.683614 -5.472656,2.050781 -1.304699,1.367205 -1.957042,3.27736 -1.957032,5.730469 -1e-5,2.453136 0.652333,4.36329 1.957032,5.730469 1.304673,1.367193 3.12889,2.050786 5.472656,2.050781 1.31248,5e-6 2.558573,-0.195307 3.738281,-0.585937 1.179665,-0.390619 2.269507,-0.968744 3.269531,-1.734375 l 0,6.867187 c -1.312523,0.484375 -2.644553,0.847656 -3.996093,1.089844 -1.351583,0.242187 -2.70705,0.36328 -4.066407,0.363281 -4.734387,-10e-7 -8.437508,-1.214843 -11.109375,-3.644531 -2.671878,-2.429682 -4.007814,-5.808585 -4.007812,-10.136719 -2e-6,-4.328108 1.335934,-7.70701 4.007812,-10.136719 2.671867,-2.429662 6.374988,-3.644504 11.109375,-3.644531 1.374982,2.7e-5 2.730449,0.121121 4.066407,0.363281 1.335915,0.242214 2.667945,0.605495 3.996093,1.089844 z"
         style="stroke:#000000;stroke-opacity:1;fill:none;fill-opacity:1;stroke-width:2;stroke-miterlimit:4;stroke-dasharray:2,2;stroke-dashoffset:0"
         id="path3035" />
      <path
         d="m 118.71094,23.365282 0,6.84375 c -1.14065,-0.781231 -2.28518,-1.359355 -3.4336,-1.734375 -1.14845,-0.374979 -2.33986,-0.562479 -3.57421,-0.5625 -2.34377,2.1e-5 -4.16799,0.683614 -5.47266,2.050781 -1.3047,1.367205 -1.95704,3.27736 -1.95703,5.730469 -10e-6,2.453136 0.65233,4.36329 1.95703,5.730469 1.30467,1.367193 3.12889,2.050786 5.47266,2.050781 1.31248,5e-6 2.55857,-0.195307 3.73828,-0.585937 1.17966,-0.390619 2.2695,-0.968744 3.26953,-1.734375 l 0,6.867187 c -1.31253,0.484375 -2.64456,0.847656 -3.9961,1.089844 -1.35158,0.242187 -2.70705,0.36328 -4.0664,0.363281 -4.73439,-10e-7 -8.43751,-1.214843 -11.109378,-3.644531 -2.671878,-2.429682 -4.007814,-5.808585 -4.007812,-10.136719 -2e-6,-4.328108 1.335934,-7.70701 4.007812,-10.136719 2.671868,-2.429662 6.374988,-3.644504 11.109378,-3.644531 1.37498,2.7e-5 2.73045,0.121121 4.0664,0.363281 1.33592,0.242214 2.66795,0.605495 3.9961,1.089844 z"
         style="stroke:#000000;stroke-opacity:1;fill:none;fill-opacity:1;stroke-width:2;stroke-miterlimit:4;stroke-dasharray:2,2;stroke-dashoffset:0"
         id="path3037" />
      <path
         d="m 123,22.54497 8.39062,0 0,8.882812 9.35157,-8.882812 9.1875,0 -11.20313,10.664062 12.11719,15.585938 -8.67188,0 -8.41406,-10.851563 -2.36719,2.25 0,8.601563 -8.39062,0 z"
         style=""
         id="path3039" />
      <path
         d="m 164.39062,36.98247 c -1.75001,1.1e-5 -3.06641,0.296886 -3.94921,0.890625 -0.88283,0.59376 -1.32423,1.468759 -1.32422,2.625 -1e-5,1.062507 0.35546,1.894537 1.0664,2.496093 0.71093,0.601568 1.69921,0.902349 2.96485,0.902344 1.57811,5e-6 2.90623,-0.566401 3.98437,-1.699219 1.07811,-1.132805 1.61717,-2.550772 1.61719,-4.253906 l 0,-0.960937 z m 12.82032,-3.164063 0,14.976563 -8.46094,0 0,-3.890625 c -1.12502,1.593752 -2.39064,2.753907 -3.79688,3.480468 -1.40626,0.726562 -3.1172,1.089843 -5.13281,1.089844 -2.71876,-10e-7 -4.92579,-0.792969 -6.62109,-2.378906 -1.69532,-1.585934 -2.54297,-3.644526 -2.54297,-6.175781 0,-3.078115 1.05859,-5.335925 3.17578,-6.773438 2.11718,-1.437484 5.4414,-2.156233 9.97266,-2.15625 l 4.94531,0 0,-0.65625 c -2e-5,-1.328106 -0.52346,-2.300761 -1.57031,-2.917969 -1.0469,-0.617166 -2.67971,-0.92576 -4.89844,-0.925781 -1.79689,2.1e-5 -3.46876,0.179709 -5.01563,0.539063 -1.54688,0.359395 -2.98438,0.898457 -4.3125,1.617187 l 0,-6.398437 c 1.79687,-0.437475 3.60156,-0.769505 5.41407,-0.996094 1.81249,-0.226536 3.62498,-0.339817 5.4375,-0.339844 4.73435,2.7e-5 8.15232,0.93362 10.2539,2.800781 2.10154,1.86721 3.15232,4.902363 3.15235,9.105469 z"
         style="stroke:#000000;stroke-opacity:1;fill:none;fill-opacity:1;stroke-width:2;stroke-miterlimit:4;stroke-dasharray:2,2;stroke-dashoffset:0"
         id="path3041" />
      <path
         d="m 189.49219,30.841845 c -1e-5,1.125016 0.30858,1.937516 0.92578,2.4375 0.61717,0.500015 1.6367,0.750014 3.05859,0.75 l 3.02344,0 0,-6.351563 -3.02344,0 c -1.42189,2.1e-5 -2.44142,0.242208 -3.05859,0.726563 -0.6172,0.484394 -0.92579,1.296894 -0.92578,2.4375 z M 179.50781,48.79497 186.375,37.568407 c -1.32813,-0.765613 -2.48438,-1.816393 -3.46875,-3.152344 -0.98438,-1.335922 -1.47657,-2.832014 -1.47656,-4.488281 -1e-5,-2.484354 0.83984,-4.335914 2.51953,-5.554687 1.67968,-1.218725 4.40233,-1.828099 8.16797,-1.828125 l 12.77343,0 0,26.25 -8.39062,0 0,-9.585938 -2.95313,0 -5.85937,9.585938 z"
         style="stroke:#000000;stroke-opacity:1;fill:none;fill-opacity:1;stroke-width:2;stroke-miterlimit:4;stroke-dasharray:2,2;stroke-dashoffset:0"
         id="path3043" />
      <path
         d="m 243.98437,44.998095 0,13.78125 -8.39062,0 0,-36.234375 8.39062,0 0,3.84375 c 1.15624,-1.531227 2.43749,-2.660132 3.84375,-3.386719 1.40624,-0.726536 3.02342,-1.089817 4.85157,-1.089844 3.23435,2.7e-5 5.8906,1.285182 7.96875,3.855469 2.07809,2.570333 3.11715,5.878923 3.11718,9.925781 -3e-5,4.046884 -1.03909,7.355475 -3.11718,9.925781 -2.07815,2.570313 -4.7344,3.855468 -7.96875,3.855469 -1.82815,-10e-7 -3.44533,-0.363282 -4.85157,-1.089844 -1.40626,-0.726561 -2.68751,-1.855466 -3.84375,-3.386718 z m 5.57813,-16.992188 c -1.79689,2.1e-5 -3.1758,0.660176 -4.13672,1.980469 -0.96095,1.32033 -1.44142,3.222672 -1.44141,5.707031 -1e-5,2.484386 0.48046,4.386727 1.44141,5.707031 0.96092,1.320319 2.33983,1.980474 4.13672,1.980469 1.79686,5e-6 3.16795,-0.656244 4.11328,-1.96875 0.94529,-1.312491 1.41795,-3.218739 1.41797,-5.71875 -2e-5,-2.499984 -0.47268,-4.406232 -1.41797,-5.71875 -0.94533,-1.31248 -2.31642,-1.968729 -4.11328,-1.96875 z"
         style="fill:none;stroke:#000000;stroke-opacity:1;stroke-width:2;stroke-miterlimit:4;stroke-dasharray:2,2;stroke-dashoffset:0"
         id="path3045" />
      <path
         d="m 263.55469,22.54497 8.39062,0 7.05469,17.8125 6,-17.8125 8.39062,0 -11.03906,28.734375 c -1.10939,2.921869 -2.40236,4.964836 -3.8789,6.128906 -1.47658,1.164052 -3.4258,1.746083 -5.84766,1.746094 l -4.85156,0 0,-5.507813 2.625,0 c 1.42186,-5e-6 2.45702,-0.226567 3.10547,-0.679687 0.64842,-0.453129 1.15233,-1.265628 1.51171,-2.4375 L 275.25,49.802782 z"
         style=""
         id="path3047" />
      <path
         d="m 293.92969,48.79497 0,-6 c 2.76562,-0.562494 4.46093,-1.757805 5.08593,-3.585938 0.46875,-1.390614 0.70312,-5.51561 0.70313,-12.375 l 0,-4.289062 22.6875,0 0,26.25 -8.39063,0 0,-20.25 -5.90625,0 0,0.867187 c -1e-5,6.859388 -0.53907,11.289071 -1.61718,13.289063 -2.18752,4.062502 -6.37501,6.09375 -12.5625,6.09375 z"
         style="fill:none;stroke:#000000;stroke-opacity:1;stroke-width:2;stroke-miterlimit:4;stroke-dasharray:2,2;stroke-dashoffset:0"
         id="path3049" />
      <path
         d="m 353.67187,35.599657 0,2.390625 -19.61718,0 c 0.20311,1.968759 0.91405,3.44532 2.13281,4.429688 1.21874,0.98438 2.92186,1.476567 5.10937,1.476562 1.76561,5e-6 3.5742,-0.261714 5.42579,-0.785156 1.85153,-0.523432 3.75388,-1.316399 5.70703,-2.378906 l 0,6.46875 c -1.9844,0.75 -3.96878,1.316406 -5.95313,1.699218 -1.98439,0.382812 -3.96877,0.574218 -5.95312,0.574219 -4.75001,-10e-7 -8.44142,-1.207031 -11.07422,-3.621094 C 326.8164,43.439506 325.5,40.052791 325.5,35.693407 c 0,-4.281233 1.29297,-7.648417 3.87891,-10.101562 2.58593,-2.4531 6.14452,-3.679661 10.67578,-3.679688 4.12498,2.7e-5 7.42575,1.242213 9.90234,3.726563 2.47653,2.484395 3.71481,5.804704 3.71484,9.960937 z m -8.625,-2.789062 c -2e-5,-1.593733 -0.46486,-2.878888 -1.39453,-3.855469 -0.9297,-0.976542 -2.14455,-1.464823 -3.64453,-1.464844 -1.62501,2.1e-5 -2.94532,0.457052 -3.96094,1.371094 -1.01563,0.914081 -1.64844,2.230486 -1.89843,3.949219 z"
         style="fill:none;stroke:#000000;stroke-opacity:1;stroke-width:2;stroke-miterlimit:4;stroke-dasharray:2,2;stroke-dashoffset:0"
         id="path3051" />
      <path
         d="m 340.47656,10.404345 6.63281,0 -8.64843,8.8125 -4.59375,0 z"
         style="fill:none;stroke:#000000;stroke-opacity:1;stroke-width:2;stroke-miterlimit:4;stroke-dasharray:2,2;stroke-dashoffset:0"
         id="path3053" />
      <path
         d="m 353.15625,22.54497 27.42187,0 0,5.179687 -9.51562,0 0,21.070313 -8.36719,0 0,-21.070313 -9.53906,0 z"
         style="fill:none;stroke:#000000;stroke-opacity:1;stroke-width:2;stroke-miterlimit:4;stroke-dasharray:2,2;stroke-dashoffset:0"
         id="path3055" />
      <path
         d="m 381.84375,22.54497 8.39062,0 0,8.882812 9.35157,-8.882812 9.1875,0 -11.20313,10.664062 12.11719,15.585938 -8.67188,0 -8.41406,-10.851563 -2.36719,2.25 0,8.601563 -8.39062,0 z"
         style="fill:none;stroke:#000000;stroke-opacity:1;stroke-width:2;stroke-miterlimit:4;stroke-dasharray:2,2;stroke-dashoffset:0"
         id="path3057" />
      <path
         d="m 423.23437,36.98247 c -1.75001,1.1e-5 -3.06641,0.296886 -3.94921,0.890625 -0.88283,0.59376 -1.32423,1.468759 -1.32422,2.625 -10e-6,1.062507 0.35546,1.894537 1.0664,2.496093 0.71093,0.601568 1.69921,0.902349 2.96485,0.902344 1.57811,5e-6 2.90623,-0.566401 3.98437,-1.699219 1.07811,-1.132805 1.61717,-2.550772 1.61719,-4.253906 l 0,-0.960937 z m 12.82032,-3.164063 0,14.976563 -8.46094,0 0,-3.890625 c -1.12502,1.593752 -2.39064,2.753907 -3.79688,3.480468 -1.40626,0.726562 -3.1172,1.089843 -5.13281,1.089844 -2.71876,-10e-7 -4.92579,-0.792969 -6.62109,-2.378906 C 410.34765,45.509817 409.5,43.451225 409.5,40.91997 c 0,-3.078115 1.05859,-5.335925 3.17578,-6.773438 2.11718,-1.437484 5.4414,-2.156233 9.97266,-2.15625 l 4.94531,0 0,-0.65625 c -2e-5,-1.328106 -0.52346,-2.300761 -1.57031,-2.917969 -1.0469,-0.617166 -2.67971,-0.92576 -4.89844,-0.925781 -1.79689,2.1e-5 -3.46876,0.179709 -5.01563,0.539063 -1.54688,0.359395 -2.98438,0.898457 -4.3125,1.617187 l 0,-6.398437 c 1.79687,-0.437475 3.60156,-0.769505 5.41407,-0.996094 1.81249,-0.226536 3.62498,-0.339817 5.4375,-0.339844 4.73435,2.7e-5 8.15232,0.93362 10.2539,2.800781 2.10154,1.86721 3.15232,4.902363 3.15235,9.105469 z"
         style="fill:none;stroke:#000000;stroke-opacity:1;stroke-width:2;stroke-miterlimit:4;stroke-dasharray:2,2;stroke-dashoffset:0"
         id="path3059" />
    </g>
    <flowRoot
       xml:space="preserve"
       id="flowRoot2993-1"
       style="font-size:48px;font-style:normal;font-variant:normal;font-weight:bold;font-stretch:normal;line-height:125%;letter-spacing:-3px;word-spacing:12px;fill:#000000;fill-opacity:1;stroke:none;font-family:DejaVu Sans;-inkscape-font-specification:DejaVu Sans Bold"
       transform="translate(-84.813802,-135.61268)"><flowRegion
         id="flowRegion2995-7"><rect
           id="rect2997-4"
           width="435.83331"
           height="45.833332"
           x="7.5"
           y="10.833333"
           style="font-size:48px;font-style:normal;font-variant:normal;font-weight:bold;font-stretch:normal;letter-spacing:-3px;word-spacing:12px;font-family:DejaVu Sans;-inkscape-font-specification:DejaVu Sans Bold" /></flowRegion><flowPara
         id="flowPara2999-0">Ру́сская руле́тка</flowPara></flowRoot>  </g>
</svg>
